<svg fill="#2563ec" version="1.1" width="1080" height="1080" viewBox="0 0 1080 1080" xml:space="preserve">
<desc>Created with Fabric.js 5.2.4</desc>
<defs>
</defs>
<rect x="0" y="0" width="100%" height="100%" fill="#2563ec"></rect>
<g transform="matrix(1 0 0 1 540 540)" id="54512b7f-ef91-48e4-ac9c-8f7701f20c91"  >
<rect vector-effect="non-scaling-stroke"  x="-540" y="-540" rx="0" ry="0" width="1080" height="1080" />
</g>
<g transform="matrix(1 0 0 1 540 540)" id="b8caff40-0357-49f6-a7d0-cf7fd3447d21"  >
</g>
<g transform="matrix(6.98 0 0 6.98 539.06 539.55)"  >
<path vector-effect="non-scaling-stroke"  transform=" translate(-75, -77.22)" d="M 150.001 17.448 L 68.883 -0.002 L 0 24.208 L 8.92 116.80799999999999 L 88.60000000000001 154.435 L 144.64600000000002 105.505 L 150 17.447 Z M 85.307 136.47 L 54.74 121.9 C 54.74 121.9 53.845 104.483 53.325 94.47200000000001 C 53.25045845990809 92.9779624305063 53.94303351832428 91.54907866817784 55.162000000000006 90.682 C 56.3832791656462 89.8194978280687 57.95956235245879 89.63786538818258 59.345000000000006 90.2 C 68.36800000000001 93.887 83.78500000000001 100.178 83.78500000000001 100.178 L 104.406 87.356 C 105.12032991589946 86.9104844041538 106.02140653032927 86.89243983624661 106.753 87.309 C 107.48756631681542 87.72164798500525 107.93590890440288 88.50461473179466 107.92 89.347 L 107.45100000000001 117.40299999999999 L 85.30700000000002 136.469 Z M 38.41 85.67 C 42.345468187093736 87.10047145719342 45.015919922677696 90.77996284205153 45.156 94.965 C 45.451 103.678 45.914 117.512 45.914 117.512 C 45.914 117.512 33.959 111.572 27.106 108.162 C 24.197233229628697 106.71773882355163 22.260220111607882 103.85246285301007 22.004 100.61500000000001 L 20.294 79.09400000000001 C 20.294 79.09400000000001 31.111 83.02400000000002 38.41 85.671 Z M 132.434 70.254 C 132.434 70.254 122.774 76.592 117.261 80.20400000000001 C 114.92435029095873 81.73768348037056 113.49814648451655 84.32836453491856 113.452 87.123 C 113.321 95.63000000000001 113.03999999999999 113.319 113.03999999999999 113.319 L 126.86399999999999 101.786 C 129.57253235860625 99.5247606152308 131.20884977824872 96.23144963031967 131.375 92.707 L 132.434 70.25399999999999 Z M 59.57899999999999 80.73400000000001 C 55.96796553908564 79.43059131009873 53.54111062551257 76.02765805829665 53.48499999999999 72.18900000000001 C 53.39999999999999 65.74700000000001 53.26499999999999 55.88600000000001 53.17499999999999 49.57100000000001 C 53.12397504594422 45.88228719020441 55.21127993883697 42.496994380722896 58.52999999999999 40.88600000000001 C 62.502999999999986 38.95600000000001 67.78199999999998 36.38900000000001 71.28099999999999 34.69300000000001 C 73.67641409614036 33.529928624303615 76.41577479114989 33.28791676609828 78.978 34.01300000000001 C 87.621 36.45900000000001 107.348 42.048000000000016 107.348 42.048000000000016 C 107.348 42.048000000000016 107.086 60.08400000000002 106.955 69.42500000000001 C 106.9038542679188 72.82689193533083 105.10787461780878 75.9637186428311 102.2 77.73000000000002 C 95.309 81.91400000000002 83.232 89.25000000000001 83.232 89.25000000000001 L 59.579 80.73300000000002 Z M 19.544999999999995 69.284 L 15.276999999999994 33.06300000000001 L 42.967 24.10100000000001 C 42.967 24.10100000000001 55.485 27.15600000000001 62.807 28.94500000000001 C 63.561 29.12800000000001 64.119 29.77500000000001 64.18900000000001 30.55200000000001 C 64.259 31.33000000000001 63.82900000000001 32.06500000000001 63.12100000000001 32.38400000000001 C 59.51800000000001 33.995000000000005 54.55300000000001 36.22500000000001 50.48100000000001 38.05200000000001 C 46.09267687485902 40.02048621887494 43.32821808348122 44.44488439884515 43.48300000000001 49.25200000000001 C 43.67000000000001 55.09000000000001 43.92800000000001 63.00700000000001 44.12000000000001 68.96600000000001 C 44.18278304710411 70.90156741617135 43.29728143625575 72.74603467513671 41.74765472670338 73.90750787525359 C 40.19802801715101 75.06898107537046 38.1791935216296 75.40136617116008 36.33900000000001 74.798 C 29.078000000000014 72.418 19.545000000000012 69.284 19.545000000000012 69.284 Z M 117.945 69.837 C 117.10661127776604 70.36673999748962 116.04512873255636 70.39362269581258 115.181 69.907 C 114.3147772515611 69.42276368437639 113.78521917326444 68.50122502562795 113.803 67.509 L 114.337 38.122 C 114.337 38.122 99.811 34.168 90.78800000000001 31.718 C 89.69500056754993 31.417687359312616 88.90235590696322 30.471691847305873 88.79800000000002 29.343 C 88.69464791813951 28.21589140059021 89.30109965915895 27.142846368681305 90.32000000000002 26.65 L 102.03600000000002 20.980999999999998 L 134.46200000000002 27.988999999999997 L 133.038 60.275999999999996 L 117.94500000000001 69.836 Z M 67.815 15.917000000000002 C 69.942 15.257000000000001 72.195 15.102000000000002 74.392 15.458000000000002 C 80.946 16.526000000000003 94.864 18.789 94.864 18.789 C 94.864 18.789 86.37 22.349 80.309 24.884 C 76.43976168103902 26.507905266885878 72.14079125032602 26.800904969780984 68.087 25.717000000000002 C 61.149 23.872 50.913000000000004 21.145 50.913000000000004 21.145 C 50.913000000000004 21.145 62.123000000000005 17.674 67.815 15.917 Z" stroke-linecap="round" />
</g>
</svg>